<svg xmlns="http://www.w3.org/2000/svg" version="1.0" width="360.000000pt" height="360.000000pt" viewBox="0 0 360.000000 360.000000" preserveAspectRatio="xMidYMid meet">
<metadata>
Created by potrace 1.16, written by Peter Selinger 2001-2019
</metadata>
<g transform="translate(0.000000,360.000000) scale(0.100000,-0.100000)" fill="#000000" stroke="none">
<path d="M1846 2673 c-36 -11 -45 -17 -35 -24 11 -8 9 -9 -6 -8 -34 4 -62 -10 -99 -51 -39 -43 -45 -60 -21 -60 8 0 15 5 15 11 0 5 -6 7 -12 3 -8 -4 -10 -3 -5 2 5 5 12 9 15 9 11 0 67 59 64 68 -1 4 3 7 10 6 7 -2 29 1 48 6 30 7 32 9 15 15 -11 4 50 7 135 6 148 -1 158 -2 217 -30 89 -41 143 -104 191 -221 2 -5 -2 -1 -10 9 -11 14 -17 16 -22 7 -4 -6 8 -34 27 -64 64 -97 77 -139 77 -249 0 -107 -27 -214 -73 -288 l-22 -35 -7 65 c-12 123 -61 211 -152 280 -51 38 -173 96 -183 87 -2 -3 24 -20 58 -38 86 -46 153 -115 192 -196 30 -64 32 -74 32 -183 0 -109 -2 -119 -32 -182 -17 -37 -44 -84 -60 -103 -26 -33 -142 -120 -149 -112 -2 2 6 30 17 63 16 46 20 75 17 130 -7 112 -65 198 -180 267 -27 16 -23 10 20 -32 97 -95 133 -223 97 -347 -54 -186 -320 -248 -458 -106 l-38 39 61 6 c68 8 108 25 144 64 31 33 50 102 42 147 -13 66 -93 99 -136 56 -41 -41 -15 -87 44 -76 32 6 34 5 28 -16 -15 -60 -64 -98 -127 -98 -45 0 -120 65 -134 118 -6 19 -26 49 -46 67 -37 35 -49 73 -17 57 80 -41 170 -4 193 81 34 125 -77 240 -198 206 -64 -18 -96 -59 -91 -121 1 -26 0 -48 -4 -48 -13 0 -78 62 -78 75 0 6 -13 26 -29 43 -35 36 -48 89 -32 132 6 20 7 39 1 55 -13 33 21 58 100 75 56 12 63 16 81 52 11 21 17 43 14 48 -4 6 1 13 9 16 17 6 69 91 69 111 0 10 29 13 126 11 l126 -2 -120 -6 -120 -6 121 -2 122 -2 6 26 c4 15 5 29 1 32 -3 3 -5 -3 -6 -14 0 -18 -1 -18 -9 1 -7 17 -9 17 -9 3 -1 -16 -14 -18 -119 -18 -132 0 -129 1 -172 -77 -13 -23 -27 -40 -32 -37 -4 3 -18 23 -29 46 -12 23 -26 38 -33 35 -7 -3 -19 -1 -27 5 -11 7 -9 8 6 3 16 -5 17 -4 8 6 -18 18 -45 -9 -89 -88 -31 -56 -34 -68 -25 -93 6 -20 6 -32 0 -36 -6 -3 -8 -13 -4 -22 3 -9 3 -13 -1 -9 -10 10 -87 -111 -79 -123 3 -6 4 -10 1 -10 -3 0 -10 10 -17 21 -8 16 -8 20 1 14 7 -4 10 -1 8 11 -2 12 2 18 11 16 9 -2 11 3 7 13 -4 11 -2 14 6 9 8 -5 9 -2 5 10 -4 11 -3 15 4 11 6 -4 9 1 7 11 -2 12 2 18 11 16 9 -2 11 3 7 13 -3 9 -2 13 3 10 5 -3 12 -1 16 5 3 5 -2 10 -12 10 -11 0 -26 -15 -38 -37 -11 -21 -30 -55 -43 -76 -12 -21 -20 -43 -16 -49 10 -15 12 -78 3 -72 -4 2 -27 -28 -52 -67 -26 -41 -47 -66 -51 -60 -10 15 3 33 16 25 8 -5 9 -1 5 10 -5 11 -3 15 5 10 8 -5 9 -2 5 10 -4 10 -1 19 8 22 8 4 12 11 8 17 -4 6 -1 7 7 2 10 -6 12 -4 7 9 -4 9 -3 15 2 12 12 -8 21 18 12 33 -7 11 -101 -143 -101 -166 0 -5 16 -40 35 -77 20 -36 33 -71 30 -76 -3 -5 5 -11 17 -13 l23 -4 -22 -2 c-27 -1 -28 -3 -8 -41 23 -44 10 -37 -15 8 -29 51 -54 53 -33 3 20 -48 83 -151 92 -151 4 0 13 -16 20 -36 16 -44 81 -158 93 -162 5 -2 22 -32 37 -65 16 -34 44 -84 63 -112 30 -45 37 -50 76 -53 46 -3 48 -6 27 -42 -17 -29 -19 -44 -5 -35 6 4 7 -1 3 -11 -10 -26 24 -44 83 -44 45 0 56 4 74 28 22 26 23 26 34 7 6 -10 23 -32 38 -47 l26 -28 222 0 c132 0 229 4 240 10 11 6 30 26 43 45 l24 35 21 -25 c18 -21 31 -25 74 -25 70 0 82 9 74 51 -14 73 -14 73 33 80 26 3 50 13 58 25 34 46 93 163 88 175 -3 8 4 18 17 24 13 6 27 19 33 30 5 11 23 42 38 69 18 29 27 57 25 71 -4 18 0 25 16 29 26 7 108 141 104 170 -2 11 -13 25 -25 31 l-22 11 34 60 c19 32 35 66 35 74 0 8 -22 53 -49 100 -34 59 -54 85 -67 85 -15 0 -18 6 -16 28 4 30 -61 150 -94 178 -11 9 -15 9 -10 2 5 -9 2 -11 -10 -6 -11 4 -13 8 -6 11 7 2 12 10 12 18 0 22 -121 243 -149 271 -46 46 -90 75 -102 67 -7 -4 -9 -3 -6 3 9 14 -36 33 -64 26 -16 -3 -20 -2 -11 4 42 31 -211 44 -302 16z"/>
</g>
</svg>